# xmcd CD database file
#
# Track frame offsets:
#	183
#	38925
#	68398
#	93758
#	111625
#	133455
#	168963
#	194313
#
# Disc length: 2795 seconds
#
# Revision: 0
# Processed by: cddbd v1.5.1PL0 Copyright (c) Steve Scherf et al.
# Submitted via: CDex 1.51
#
DISCID=6c0ae908
DTITLE=Anca Parghel - Klaus Ignatzek - Blue Flame
DYEAR=1989
DGENRE=Jazz
TTITLE0=Jacaranda
TTITLE1=Soul, My Secret Place
TTITLE2=Birthday
TTITLE3=Deformation
TTITLE4=Whisper Yes
TTITLE5=Blue Energy
TTITLE6=Bwana's Calypso
TTITLE7=Airbaloon
EXTD=YEAR: 1989
EXTT0=
EXTT1=
EXTT2=
EXTT3=
EXTT4=
EXTT5=
EXTT6=
EXTT7=
PLAYORDER=
